<svg width="150" height="150" viewBox="0 0 150 150" fill="none" xmlns="http://www.w3.org/2000/svg">
<g clip-path="url(#clip0_189_2)">
<path d="M105.469 65.625H79.6875V49.2188C79.6875 46.4265 78.0305 43.8984 75.4746 42.7734C72.9199 41.6602 69.9316 42.1582 67.8809 44.0625L39.7559 70.0635C38.3203 71.3965 37.5 73.2715 37.5 75.2344C37.5916 77.514 38.3423 79.1162 39.798 80.4346L67.923 105.996C69.9829 107.873 72.9592 108.349 75.5051 107.223C78.051 106.097 79.6887 103.579 79.6887 100.795L79.6881 84.3891L105.469 84.375C109.365 84.375 112.5 81.2402 112.5 77.3438V72.6562C112.5 68.7891 109.365 65.625 105.469 65.625ZM75 0C33.5742 0 0 33.5742 0 75C0 116.426 33.5742 150 75 150C116.426 150 150 116.426 150 75C150 33.5742 116.426 0 75 0ZM75 135.938C41.3965 135.938 14.0625 108.601 14.0625 75C14.0625 41.3994 41.3965 14.0625 75 14.0625C108.604 14.0625 135.938 41.3994 135.938 75C135.938 108.601 108.604 135.938 75 135.938Z" fill="#EE7828"/>
</g>
<defs>
<clipPath id="clip0_189_2">
<rect width="150" height="150" fill="white"/>
</clipPath>
</defs>
</svg>
